<svg width="900" height="710" viewBox="0 0 900 710" fill="none" xmlns="http://www.w3.org/2000/svg">
<path d="M775.167 228.278L900 0L635.99 9.76864L509.717 237.943L775.167 228.278Z" fill="#06EBFB"/>
<path d="M635.99 9.7688L775.167 228.278L509.717 237.944L635.99 9.7688Z" fill="#23D3FE"/>
<path d="M509.717 237.943L242.879 248.535L382.519 471.157L122.314 476.555L0 709.871H521.542L645.655 456.967L509.717 237.943Z" fill="#23D3FE"/>
<path d="M509.717 237.943L380.052 9.7688L242.879 248.535L509.717 237.943Z" fill="#39BFFE"/>
<path d="M509.717 237.943L242.879 248.535L382.519 471.157L509.717 237.943Z" fill="#499ED9"/>
<path d="M645.656 456.967L382.52 471.157L521.543 709.871L645.656 456.967Z" fill="#2E97BF"/>
<path d="M509.718 237.943L382.52 471.157L521.543 709.871L645.656 456.967L509.718 237.943Z" fill="#3382B8"/>
<path d="M521.542 709.872L382.519 471.157L269.871 709.872H521.542Z" fill="#39BFFE"/>
<path d="M269.872 709.872L382.52 471.157L122.314 476.555L269.872 709.872Z" fill="#23D3FE"/>
<path d="M269.871 709.871L122.314 476.555L0 709.871H269.871Z" fill="#06EBFB"/>
</svg>
